<?xml version="1.0" encoding="utf-8"?>
<!-- Generator: Adobe Illustrator 15.0.0, SVG Export Plug-In . SVG Version: 6.00 Build 0)  -->
<!DOCTYPE svg PUBLIC "-//W3C//DTD SVG 1.1//EN" "http://www.w3.org/Graphics/SVG/1.1/DTD/svg11.dtd">
<svg version="1.1" id="Layer_1" xmlns="http://www.w3.org/2000/svg" xmlns:xlink="http://www.w3.org/1999/xlink" x="0px" y="0px"
	 width="28px" height="28px" viewBox="0 0 512 512" enable-background="new 0 0 512 512" xml:space="preserve">
<g>
  <rect x="64" y="64" width="384" height="384" fill="#fff"/>
	<path fill="#303943" d="M291.765,205.719c-10.922,0-21.844,0.718-31.312,2.906c-17.468,5.094-31.313,16.031-31.313,39.313
		c0,18.219,9.485,30.594,25.5,30.594c2.188,0,4.36-0.751,5.813-0.751c9.468-2.188,18.202-8.749,23.297-18.937
		c8.72-14.533,8.016-27.626,8.016-44.377L291.765,205.719L291.765,205.719z"/>
	<path fill="#303943" d="M426.671,0H85.344C38.406,0,0,38.404,0,85.344v341.313C0,473.625,38.407,512,85.344,512h341.328
		C473.61,512,512,473.626,512,426.656V85.344C512,38.404,473.61,0,426.671,0z M286.671,135.813
		c-5.109-7.25-14.577-10.905-23.296-10.905c-1.452,0-2.188,0-2.922,0c-14.563,1.469-27.656,9.468-31.313,25.468
		c-0.718,3.656-2.891,7.282-7.266,8.033l-40.765-5.096c-2.907-0.748-7.281-2.938-5.844-8.75
		c8.749-45.875,48.061-61.875,85.187-64.063c2.922,0,5.828,0,8.748,0c20.377,0,46.597,5.813,63.33,21.126
		c20.375,18.907,18.204,44.375,18.204,72.063v65.529c0,19.626,8,28.375,16.016,38.563c2.171,3.658,2.906,8-0.72,10.938
		c-8.031,7.282-23.313,20.375-32.047,27.656c-2.906,2.188-6.546,2.188-10.188,0.718c-13.844-11.625-16.016-16.718-24.032-27.655
		c-13.826,14.563-25.468,22.563-39.312,26.938c-8.72,2.188-18.188,3.625-29.845,3.625c-34.937,0-62.607-21.813-62.607-64.782
		c0-34.218,18.204-57.5,45.141-68.438c13.827-6.53,30.579-9.469,47.313-11.625c10.922-1.467,21.844-2.188,31.312-2.938v-5.812
		C291.765,156.218,292.469,144.563,286.671,135.813z M413.985,387.594c-5.14,3.938-10.656,7.499-16.203,10.688
		c-41.531,24.905-95.313,37.968-141.984,37.968c-75.156,0-142.391-27.688-193.405-73.969c-4.358-3.563-0.797-8.688,4.343-5.938
		c54.984,32.031,123,51.438,193.405,51.438c44.313,0,92.141-8.313,137.641-26.124c3.157-1.188,6.72-2.782,9.874-3.971
		C414.781,374.53,421.11,382.468,413.985,387.594z M451.563,362.281c-0.39,14.25-7.906,41.529-25.703,56.562
		c-3.562,2.781-7.109,1.188-5.547-2.78c5.157-12.657,17-41.938,11.484-48.654c-3.953-5.126-20.172-4.719-34.017-3.564
		c-6.327,0.813-11.875,1.188-16.219,2c-3.952,0.375-4.75-3.153-0.798-5.937c5.141-3.563,10.688-6.313,17.017-8.313
		c22.53-6.721,48.655-2.751,52.22,1.592c0.779,1.189,1.562,3.531,1.562,6.721L451.563,362.281L451.563,362.281z"/>
</g>
</svg>
